<svg width="245" height="56" viewBox="0 0 245 56" fill="none" xmlns="http://www.w3.org/2000/svg">
<rect x="0.429688" y="0.429199" width="244" height="55.1412" rx="4" stroke="#767676" stroke-width="0.858824"/>
<path fill-rule="evenodd" clip-rule="evenodd" d="M128.928 16.1901L130.07 14.7251H129.138L128.268 16.1891H128.928V16.1901ZM103.308 16.0191C103.449 16.0196 103.585 15.9636 103.685 15.8635C103.785 15.7634 103.84 15.6275 103.84 15.4861C103.841 15.3446 103.785 15.2085 103.685 15.1084C103.585 15.0084 103.449 14.9527 103.308 14.9541C103.026 14.9713 102.807 15.2044 102.807 15.4861C102.807 15.7678 103.026 16.0009 103.308 16.0181V16.0191ZM95.6836 14.9551V22.0001H98.0516C100.147 22.0001 101.377 20.6961 101.377 18.4751C101.377 16.2581 100.142 14.9551 98.0516 14.9551H95.6836ZM96.5626 15.7451H97.9926C99.5946 15.7451 100.478 16.7221 100.478 18.4851C100.478 20.2321 99.5896 21.2091 97.9926 21.2091H96.5626V15.7451ZM103.733 22.0001H102.883V16.9221H103.733V22.0001ZM106.712 19.7301C105.756 19.5002 105.292 19.0563 105.292 18.3236C105.292 17.4539 106.059 16.8341 107.157 16.8341C108.271 16.8341 109.013 17.4881 109.047 18.3871H108.237C108.173 17.8551 107.782 17.5271 107.157 17.5271C106.537 17.5271 106.127 17.8351 106.127 18.2791C106.127 18.6311 106.386 18.8701 106.952 19.0071L107.758 19.2021C108.784 19.4511 109.154 19.8521 109.154 20.5791C109.154 21.4631 108.319 22.0881 107.187 22.0881C105.995 22.0881 105.253 21.4871 105.155 20.5351H106.005C106.107 21.1161 106.498 21.3951 107.187 21.3951C107.875 21.3951 108.299 21.1021 108.299 20.6431C108.299 20.2761 108.099 20.0661 107.519 19.9251L106.712 19.7301ZM113.004 16.8341C112.267 16.8341 111.676 17.2101 111.364 17.7811H111.344V16.9211H110.538V23.6941H111.388V21.1741H111.408C111.71 21.7311 112.296 22.0881 113.023 22.0881C114.303 22.0881 115.177 21.0531 115.177 19.4611C115.177 17.8691 114.297 16.8341 113.004 16.8341ZM111.383 19.4611C111.383 20.5941 111.968 21.3411 112.838 21.3411C113.741 21.3411 114.308 20.6131 114.308 19.4611C114.308 18.3141 113.741 17.5811 112.838 17.5811C111.969 17.5811 111.383 18.3331 111.383 19.4611ZM118.641 22.0881C120.042 22.0881 120.989 21.0781 120.989 19.4611C120.989 17.8401 120.042 16.8341 118.641 16.8341C117.234 16.8341 116.287 17.8401 116.287 19.4611C116.287 21.0771 117.234 22.0881 118.641 22.0881ZM117.151 19.4611C117.151 20.6571 117.742 21.3411 118.641 21.3411C119.539 21.3411 120.125 20.6571 120.125 19.4611C120.125 18.2651 119.539 17.5811 118.641 17.5811C117.742 17.5811 117.151 18.2651 117.151 19.4611ZM122.349 22.0001H123.199V19.0121C123.199 18.1521 123.721 17.5861 124.522 17.5861C125.302 17.5861 125.688 18.0361 125.688 18.8561V22.0001H126.538V18.7041C126.538 17.5521 125.894 16.8341 124.78 16.8341C123.994 16.8341 123.452 17.1861 123.169 17.7321H123.149V16.9221H122.349V22.0001ZM129.016 22.0001H128.166V16.9221H129.016V22.0001ZM133.944 16.9221H134.828L132.963 22.0001H132.094L130.224 16.9221H131.118L132.518 21.0971H132.538L133.944 16.9221ZM137.887 17.5721C138.687 17.5721 139.22 18.1771 139.239 19.0261H136.481C136.534 18.1821 137.091 17.5711 137.887 17.5711V17.5721ZM137.96 21.3511C138.605 21.3511 139.078 21.0231 139.22 20.5451H140.055C139.908 21.4341 139.049 22.0881 137.941 22.0881C136.485 22.0881 135.601 21.0771 135.601 19.4801C135.601 17.9041 136.5 16.8341 137.901 16.8341C139.273 16.8341 140.118 17.8301 140.118 19.3681V19.6901H136.476V19.7391C136.476 20.7111 137.047 21.3511 137.96 21.3511ZM141.522 22.0001H142.372V14.9541H141.522V22.0001ZM147.419 22.0001H146.569V16.9221H147.37V17.7321H147.39C147.673 17.1861 148.215 16.8341 149.001 16.8341C150.114 16.8341 150.759 17.5521 150.759 18.7041V22.0001H149.909V18.8561C149.909 18.0361 149.523 17.5861 148.742 17.5861C147.941 17.5861 147.419 18.1521 147.419 19.0121V22.0001ZM154.018 21.3651C153.407 21.3651 153.002 21.0481 153.002 20.5651C153.002 20.0851 153.393 19.7831 154.076 19.7391L155.434 19.6561V20.0711C155.434 20.8041 154.818 21.3651 154.018 21.3651ZM155.458 21.1261C155.155 21.7071 154.511 22.0881 153.827 22.0881C152.816 22.0881 152.138 21.4771 152.138 20.5651C152.138 19.6951 152.807 19.1481 153.979 19.0801L155.434 18.9971V18.5721C155.434 17.9521 155.023 17.5811 154.32 17.5811C153.666 17.5811 153.256 17.8891 153.148 18.3871H152.328C152.387 17.5081 153.139 16.8341 154.34 16.8341C155.531 16.8341 156.283 17.4791 156.283 18.4901V22.0001H155.478V21.1261H155.458Z" fill="#F7F7F7"/>
<path fill-rule="evenodd" clip-rule="evenodd" d="M80.6229 14.2168C80.7919 15.6958 80.1859 17.1528 79.3029 18.2238C78.3789 19.2788 76.9029 20.0848 75.4659 19.9808C75.2769 18.5578 76.0059 17.0448 76.8209 16.1218C77.7429 15.0748 79.3439 14.2718 80.6229 14.2168ZM85.3299 22.7468C85.1699 22.8398 82.5099 24.3768 82.5399 27.5118C82.5729 31.2968 85.9589 32.5488 85.9999 32.5618C85.9799 32.6508 85.4699 34.3688 84.1999 36.1128C83.1399 37.6488 82.0289 39.1498 80.2639 39.1768C79.4249 39.1958 78.8589 38.9618 78.2689 38.7188C77.6529 38.4648 77.0119 38.1998 76.0079 38.1998C74.9439 38.1998 74.2739 38.4728 73.6279 38.7368C73.0679 38.9648 72.5279 39.1848 71.7659 39.2148C70.0859 39.2748 68.8009 37.5758 67.7029 36.0548C65.5059 32.9468 63.7959 27.2968 66.0889 23.4528C67.1989 21.5678 69.2249 20.3528 71.3899 20.3208C72.3439 20.3018 73.2579 20.6578 74.0599 20.9708C74.6729 21.2088 75.2199 21.4208 75.6679 21.4208C76.0619 21.4208 76.5929 21.2168 77.2129 20.9788C78.1899 20.6038 79.3849 20.1438 80.6029 20.2688C81.4349 20.2918 83.8039 20.5868 85.3329 22.7458L85.3299 22.7468ZM139.589 38.2368C140.38 37.5438 140.775 36.6438 140.775 35.5388C140.775 34.6408 140.505 33.8888 139.964 33.2868C139.421 32.6838 138.578 32.1568 137.429 31.7068C136.489 31.3468 135.843 31.0128 135.487 30.7048C135.077 30.3708 134.874 29.9458 134.874 29.4328C134.874 28.9688 135.052 28.5768 135.409 28.2558C135.829 27.8958 136.418 27.7158 137.17 27.7158C138.122 27.7158 138.973 27.9158 139.725 28.3138L140.26 26.6168C139.454 26.2058 138.445 25.9998 137.23 25.9998C135.868 25.9998 134.778 26.3398 133.962 27.0228C133.142 27.7048 132.733 28.5798 132.733 29.6478C132.733 31.2828 133.901 32.5258 136.238 33.3738C137.097 33.6838 137.712 34.0178 138.08 34.3788C138.45 34.7388 138.635 35.1828 138.635 35.7098C138.635 36.3018 138.411 36.7758 137.963 37.1298C137.513 37.4828 136.885 37.6598 136.08 37.6598C134.993 37.669 133.924 37.3821 132.988 36.8298L132.492 38.5658C133.364 39.1058 134.516 39.3758 135.952 39.3758C137.508 39.3758 138.719 38.9958 139.589 38.2378V38.2368ZM103.993 39.1828H106.271L101.952 26.1898H99.2979L94.9999 39.1828H97.2179L98.4069 35.3668H102.745L103.993 39.1828ZM101.24 30.3728L102.368 33.7648H98.7839L99.8919 30.3728C100.183 29.2938 100.395 28.4778 100.527 27.9248H100.567C100.897 29.2098 101.12 30.0258 101.24 30.3728ZM115.996 38.1608C116.881 37.2358 117.323 35.9768 117.323 34.3828C117.323 32.9568 116.944 31.8068 116.183 30.9328C115.425 30.0578 114.477 29.6228 113.341 29.6228C111.889 29.6228 110.807 30.1798 110.093 31.2988H110.053L109.933 29.8138H108.053C108.105 30.8688 108.132 31.8968 108.132 32.8978V42.9998H110.271V38.0648H110.311C110.866 38.9508 111.776 39.3948 113.045 39.3948C114.219 39.3948 115.203 38.9838 115.996 38.1608ZM114.51 32.2038C114.934 32.7958 115.144 33.5478 115.144 34.4598C115.144 35.4498 114.919 36.2458 114.47 36.8498C114.022 37.4538 113.395 37.7568 112.59 37.7568C111.903 37.7568 111.345 37.5218 110.916 37.0528C110.486 36.5828 110.272 36.0078 110.272 35.3268V33.7638C110.272 33.5978 110.305 33.3878 110.372 33.1298C110.489 32.5998 110.786 32.1266 111.212 31.7898C111.642 31.4498 112.121 31.2788 112.648 31.2788C113.427 31.2788 114.048 31.5868 114.51 32.2038ZM128.395 34.3838C128.395 35.9768 127.953 37.2358 127.067 38.1608C126.275 38.9838 125.291 39.3948 124.117 39.3948C122.848 39.3948 121.937 38.9508 121.384 38.0648H121.344V42.9998H119.204V32.8978C119.204 31.8968 119.178 30.8678 119.126 29.8138H121.006L121.126 31.2988H121.166C121.878 30.1798 122.961 29.6218 124.414 29.6218C125.549 29.6218 126.497 30.0578 127.257 30.9318C128.015 31.8068 128.395 32.9568 128.395 34.3828V34.3838ZM126.216 34.4598C126.216 33.5478 126.004 32.7958 125.581 32.2038C125.118 31.5868 124.5 31.2788 123.721 31.2788C123.191 31.2788 122.713 31.4508 122.283 31.7888C121.854 32.1308 121.574 32.5768 121.443 33.1288C121.385 33.3357 121.351 33.5489 121.343 33.7638V35.3268C121.343 36.0068 121.558 36.5828 121.986 37.0528C122.415 37.5208 122.973 37.7568 123.661 37.7568C124.466 37.7568 125.094 37.4538 125.541 36.8498C125.991 36.2458 126.216 35.4498 126.216 34.4598ZM147.846 31.3768H145.488V35.9248C145.488 37.0818 145.904 37.6598 146.736 37.6598C147.119 37.6598 147.436 37.6278 147.686 37.5628L147.746 39.1428C147.324 39.2968 146.77 39.3738 146.082 39.3738C145.238 39.3738 144.578 39.1238 144.101 38.6228C143.626 38.1208 143.388 37.2788 143.388 36.0968V31.3748H141.983V29.8128H143.388V28.0968L145.488 27.4798V29.8128H147.846V31.3768ZM157.215 37.9678C158.059 37.0438 158.483 35.8608 158.483 34.4208C158.483 33.0208 158.073 31.8768 157.253 30.9908C156.395 30.0788 155.258 29.6228 153.846 29.6228C152.38 29.6228 151.214 30.0858 150.351 31.0108C149.485 31.9358 149.054 33.1248 149.054 34.5768C149.054 35.9638 149.473 37.1148 150.312 38.0268C151.15 38.9388 152.275 39.3948 153.687 39.3948C155.153 39.3948 156.329 38.9198 157.215 37.9678ZM155.69 32.2658C156.074 32.8838 156.264 33.6248 156.264 34.4888C156.264 35.3518 156.065 36.1008 155.671 36.7298C155.208 37.4898 154.567 37.8698 153.751 37.8698C152.917 37.8698 152.271 37.4978 151.808 36.7498C151.424 36.1328 151.235 35.3918 151.235 34.5278C151.235 33.6378 151.424 32.8848 151.808 32.2658C152.257 31.5188 152.91 31.1458 153.77 31.1458C154.6 31.1458 155.241 31.5178 155.69 32.2658ZM165.435 31.6448C165.212 31.6056 164.987 31.5862 164.761 31.5868C164.008 31.5868 163.427 31.8638 163.017 32.4168C162.661 32.9048 162.483 33.5218 162.483 34.2668V39.1828H160.345L160.365 32.7648C160.365 31.6848 160.338 30.7018 160.285 29.8148H162.148L162.226 31.6078H162.285C162.49 31.0199 162.861 30.5043 163.354 30.1238C163.804 29.7978 164.345 29.6221 164.9 29.6218C165.098 29.6218 165.276 29.6358 165.435 29.6598V31.6448ZM174.922 34.9988C174.979 34.6875 175.005 34.3713 175 34.0548C175 32.8858 174.716 31.9018 174.151 31.1068C173.438 30.1048 172.388 29.6038 171 29.6038C169.588 29.6038 168.465 30.1048 167.635 31.1068C166.841 32.0448 166.445 33.2208 166.445 34.6338C166.445 36.0738 166.871 37.2198 167.722 38.0738C168.575 38.9288 169.746 39.3558 171.239 39.3558C172.48 39.3558 173.555 39.1638 174.466 38.7768L174.131 37.3328C173.352 37.6278 172.485 37.7758 171.535 37.7758C170.676 37.7758 169.977 37.5568 169.436 37.1208C168.84 36.6318 168.53 35.9248 168.505 34.9988H174.922ZM172.545 31.9148C172.835 32.3648 172.975 32.8978 172.961 33.5148H168.505C168.571 32.8848 168.782 32.3448 169.138 31.8948C169.573 31.3288 170.142 31.0468 170.841 31.0468C171.606 31.0468 172.175 31.3368 172.545 31.9148Z" fill="#F7F7F7"/>
</svg>
