<svg xmlns="http://www.w3.org/2000/svg" viewBox="0 0 66.9 69.03"><defs><style>.cls-1{fill:#fff;}</style></defs><g id="Camada_2" data-name="Camada 2"><g id="Camada_1-2" data-name="Camada 1"><g id="Camada_2-2" data-name="Camada 2"><g id="Camada_1-2-2" data-name="Camada 1-2"><path class="cls-1" d="M20.44,49.6a2,2,0,0,1-2.05-2,1.89,1.89,0,0,1,.37-1.21,5.09,5.09,0,0,1,.59-.64L44.78,20.35a2.5,2.5,0,0,1,1.65-1,1.92,1.92,0,0,1,1.83.92,1.87,1.87,0,0,1,0,2.1,4.74,4.74,0,0,1-.65.76L22.1,48.68C21.6,49.18,21.09,49.66,20.44,49.6Z"/><path class="cls-1" d="M18.22,23.87a7.28,7.28,0,1,1,7.32,7.3,7.28,7.28,0,0,1-7.32-7.3Z"/><path class="cls-1" d="M41.39,37.82a7.3,7.3,0,1,1-7.26,7.34V45.1A7.28,7.28,0,0,1,41.39,37.82Z"/><path class="cls-1" d="M66.26,40.55C65.53,39,64.82,37.46,64,36a2.85,2.85,0,0,1,0-3c.81-1.5,1.52-3,2.25-4.59a6.33,6.33,0,0,0-2.58-8.23Q61.4,18.89,59,17.73a2.82,2.82,0,0,1-1.7-2.25c-.22-1.53-.53-3.05-.78-4.58a6.94,6.94,0,0,0-2.44-4.43,6.83,6.83,0,0,0-5.53-1.22c-1.56.17-3.11.42-4.67.66a2.31,2.31,0,0,1-2.09-.67c-1-1.06-2.2-2-3.21-3.08A6,6,0,0,0,34.53,0H32.38a5.83,5.83,0,0,0-4,2.11c-1,1.1-2.18,2-3.21,3.08A2.34,2.34,0,0,1,23,5.9c-1.24-.2-2.49-.35-3.73-.54a12,12,0,0,0-3.69-.11,6.12,6.12,0,0,0-5,5c-.35,1.74-.65,3.49-.92,5.24A2.83,2.83,0,0,1,8,17.75c-1.57.78-3.13,1.59-4.65,2.45A6.29,6.29,0,0,0,.66,28.46C1.4,30,2.13,31.59,2.93,33.12a2.77,2.77,0,0,1,0,2.76C2.12,37.43,1.38,39,.63,40.6a6.29,6.29,0,0,0,2.59,8.22c1.52.86,3.07,1.67,4.64,2.45a2.85,2.85,0,0,1,1.69,2.25c.27,1.76.55,3.51.92,5.24a6.31,6.31,0,0,0,3.61,4.59,7.82,7.82,0,0,0,4.23.39c1.56-.13,3.11-.41,4.67-.65a2.33,2.33,0,0,1,2.09.67c1,1,2.14,1.92,3.12,3a5.84,5.84,0,0,0,4,2.27h2.16a5.72,5.72,0,0,0,4.27-2.21c1-1.07,2.11-2,3.11-3A2.37,2.37,0,0,1,44,63.1c1.53.24,3.06.49,4.6.65a8.52,8.52,0,0,0,3.41-.1,6.39,6.39,0,0,0,4.56-5.47c.26-1.53.57-3,.79-4.58a2.92,2.92,0,0,1,1.81-2.39c1.53-.75,3-1.54,4.52-2.39A6.31,6.31,0,0,0,66.26,40.55Zm-6.33-3.13c.77,1.52,1.5,3.06,2.24,4.6s.42,2.51-1.11,3.32-2.89,1.55-4.36,2.29a6.26,6.26,0,0,0-3.58,5c-.25,1.69-.57,3.37-.89,5A2.11,2.11,0,0,1,50,59.58a1.85,1.85,0,0,1-.41-.07c-1.82-.26-3.64-.54-5.47-.79a5.69,5.69,0,0,0-4.89,1.55c-1.37,1.27-2.69,2.58-4,3.87s-2.22,1.17-3.45,0L28,60.57a6.11,6.11,0,0,0-5.53-1.81c-1.68.27-3.37.49-5.06.74a2.14,2.14,0,0,1-2.69-1.39,1.81,1.81,0,0,1-.1-.61c-.31-1.65-.61-3.31-.88-5a6.28,6.28,0,0,0-3.55-4.93C8.72,46.83,7.26,46,5.79,45.25S4,43.55,4.73,42.05,6.23,38.93,7,37.38a6.18,6.18,0,0,0,0-5.76c-.78-1.57-1.54-3.15-2.3-4.72A2.1,2.1,0,0,1,5.22,24a2.06,2.06,0,0,1,.49-.25l4.57-2.39a6.29,6.29,0,0,0,3.5-4.88c.28-1.75.6-3.5.93-5.24A2.08,2.08,0,0,1,17,9.44c1.58.23,3.3.43,5,.73a6.57,6.57,0,0,0,6.3-2C29.45,7,30.65,5.9,31.81,4.78a2.1,2.1,0,0,1,2.93-.38,2.28,2.28,0,0,1,.38.38C36.33,6,37.56,7.12,38.75,8.31a6.31,6.31,0,0,0,5.83,1.9c1.64-.25,3.28-.48,4.93-.72a2.14,2.14,0,0,1,2.65,1.45,2.1,2.1,0,0,1,.09.5c.31,1.68.61,3.36.88,5a6.23,6.23,0,0,0,3.47,4.83c1.52.78,3,1.59,4.53,2.39a2.11,2.11,0,0,1,1.33,2.68,2.16,2.16,0,0,1-.27.55c-.75,1.56-1.49,3.12-2.27,4.66A6.14,6.14,0,0,0,59.93,37.42Z"/></g></g></g></g></svg>