<svg xmlns="http://www.w3.org/2000/svg" viewBox="0 0 66.7 69.5"><defs><style>.cls-1{fill:#fff;}.cls-2{fill:none;stroke:#fff;stroke-linecap:round;stroke-miterlimit:10;stroke-width:6px;stroke-dasharray:14.02 14.02;}</style></defs><g id="Camada_2" data-name="Camada 2"><g id="Camada_1-2" data-name="Camada 1"><path class="cls-1" d="M30.9,53.5V49.12a18.59,18.59,0,0,1-7.8-2l1.37-5.37a16.4,16.4,0,0,0,7.63,2c2.62,0,4.42-1,4.42-2.84s-1.47-2.84-4.89-4c-4.91-1.66-8.26-4-8.26-8.4,0-4.07,2.83-7.24,7.76-8.19V16h4.52v4.06a16.81,16.81,0,0,1,6.66,1.5L41,26.76a14.86,14.86,0,0,0-6.6-1.59c-3,0-3.93,1.31-3.93,2.6,0,1.49,1.6,2.48,5.5,3.93,5.47,1.92,7.65,4.46,7.65,8.62s-2.87,7.54-8.15,8.46v4.71Z"/><path class="cls-2" d="M33.35,3h0A30.35,30.35,0,0,1,63.7,33.35v2.8A30.35,30.35,0,0,1,33.35,66.5h0A30.35,30.35,0,0,1,3,36.15v-2.8A30.35,30.35,0,0,1,33.35,3Z"/></g></g></svg>