<svg xmlns="http://www.w3.org/2000/svg" viewBox="0 0 75.94 69.02"><defs><style>.cls-1{fill:#fff;}</style></defs><g id="Camada_2" data-name="Camada 2"><g id="Camada_1-2" data-name="Camada 1"><g id="Camada_2-2" data-name="Camada 2"><g id="Camada_1-2-2" data-name="Camada 1-2"><path class="cls-1" d="M75.33,16.54c-2.47-4.59-5-9.13-7.39-13.79A4.56,4.56,0,0,0,63.38,0H18.53c-2.08,0-3.16,1.12-3.17,3.23s0,4.45,0,7c-.4-.36-.6-.52-.78-.7-2-2-4-4.1-6.08-6.07a5,5,0,0,0-7.07.08,4.9,4.9,0,0,0-1.2,2,5.1,5.1,0,0,0,1.51,5.34q6.42,6.39,12.8,12.84a2,2,0,0,1,.83,1.47v24.4c0,.66-.21.86-.86.84H10.29A3.11,3.11,0,0,0,7.08,52a3.15,3.15,0,0,0,.47,3.44c2.55,3.86,5.1,7.73,7.59,11.63A3.76,3.76,0,0,0,18.62,69H63.06c2.55,0,3.56-1,3.56-3.55V22.65c0-1.11.32-1.39,1.37-1.33,1.49.09,3,0,4.5,0C75.55,21.33,76.79,19.27,75.33,16.54ZM4,9A2.6,2.6,0,0,1,3,7.14a2.07,2.07,0,0,1,1.1-1.9,1.79,1.79,0,0,1,2.15.19A6.37,6.37,0,0,1,6.82,6q6.63,6.66,13.27,13.29c.61.6.69.93,0,1.57-2.2,2.17-2.17,2.2-4.34,0ZM54,66H19.25a1.9,1.9,0,0,1-1.87-1c-2.44-3.81-5-7.59-7.43-11.37.33-.49.77-.29,1.14-.29H52.92a1.78,1.78,0,0,1,1.75.93c2.48,3.85,5,7.66,7.66,11.7Zm9.55-3.39c-2.08-3.15-4.23-6.17-6.1-9.36a5.3,5.3,0,0,0-5.31-2.85c-10.76.12-21.53,0-32.29.08-1.3,0-1.53-.38-1.52-1.57q.08-10.5,0-21c0-1.22.49-1.4,1.4-1.15,1.49.4,3,.87,4.42,1.36A1.53,1.53,0,0,0,26.23,26a36.81,36.81,0,0,1-1.79-5.69,5,5,0,0,0-1.66-2.6c-1.47-1.48-3.5-2.74-4.23-4.53s-.2-4.2-.22-6.33V3.73c0-.58.17-.84.77-.78H62.29c1.17,0,1.5.23,1.5,1.46V61.23a2.07,2.07,0,0,1-.32,1.39ZM72,18.54c-1.54-.06-3.08,0-4.62,0-.45,0-.79,0-.79-.63V7.12l.27-.1c.64,1.17,1.28,2.33,1.91,3.5,1.27,2.34,2.52,4.7,3.81,7C73,18.29,73,18.57,72,18.54Z"/><path class="cls-1" d="M42.9,38.45H54.47c1,0,2,.12,2.06,1.4.08,1-.63,1.52-2.09,1.53H31c-1,0-1.84-.21-2-1.36-.14-.94.63-1.56,1.9-1.56Z"/><path class="cls-1" d="M42.88,12.84H54.45c1.43,0,2.17.52,2.08,1.52-.11,1.26-1,1.42-2.07,1.42H31.06c-1.07,0-2-.25-2-1.47s.92-1.49,2-1.49C35,12.86,38.93,12.84,42.88,12.84Z"/><path class="cls-1" d="M42.68,24.08h-12c-1,0-1.63-.42-1.65-1.4s.62-1.45,1.59-1.47H54.21c1.06,0,2.21-.1,2.32,1.41.07,1-.62,1.46-2.26,1.46Z"/><path class="cls-1" d="M46.7,32.49H39c-1,0-1.9-.26-1.94-1.39s.86-1.55,1.94-1.55H54.59c1.06,0,2,.26,1.93,1.54s-.92,1.39-1.93,1.38Z"/></g></g></g></g></svg>