<svg xmlns="http://www.w3.org/2000/svg" viewBox="0 0 66.89 69"><defs><style>.cls-1{fill:#612783;}</style></defs><g id="Camada_2" data-name="Camada 2"><g id="Camada_1-2" data-name="Camada 1"><path class="cls-1" d="M20.43,49.6a2,2,0,0,1-1.68-3.16,5.89,5.89,0,0,1,.59-.64L44.77,20.35a2.55,2.55,0,0,1,1.65-1,1.91,1.91,0,0,1,1.83.92,1.85,1.85,0,0,1,0,2.1,4.67,4.67,0,0,1-.65.76L22.09,48.68C21.59,49.18,21.08,49.66,20.43,49.6Z"/><path class="cls-1" d="M18.21,23.87a7.28,7.28,0,1,1,7.32,7.3A7.29,7.29,0,0,1,18.21,23.87Z"/><path class="cls-1" d="M41.38,37.82a7.3,7.3,0,1,1-7.26,7.28A7.28,7.28,0,0,1,41.38,37.82Z"/><path class="cls-1" d="M66.25,40.55C65.52,39,64.81,37.46,64,36A2.87,2.87,0,0,1,64,33c.81-1.5,1.52-3,2.25-4.59a6.33,6.33,0,0,0-2.58-8.23q-2.28-1.29-4.64-2.45a2.84,2.84,0,0,1-1.7-2.25c-.22-1.53-.53-3.05-.78-4.58a6.9,6.9,0,0,0-2.44-4.43C52.48,5.12,50.56,5,48.58,5.25c-1.56.17-3.11.42-4.67.66a2.3,2.3,0,0,1-2.09-.67c-1-1.06-2.2-2-3.21-3.08A6,6,0,0,0,34.52,0H32.37a5.84,5.84,0,0,0-4,2.11c-1,1.1-2.18,2-3.21,3.08a2.35,2.35,0,0,1-2.2.71c-1.24-.2-2.49-.35-3.73-.54a12,12,0,0,0-3.69-.11,6.14,6.14,0,0,0-5,5c-.35,1.74-.65,3.49-.92,5.24a2.81,2.81,0,0,1-1.68,2.26c-1.57.78-3.13,1.59-4.65,2.45A6.31,6.31,0,0,0,.65,28.46c.74,1.56,1.47,3.13,2.27,4.66a2.75,2.75,0,0,1,0,2.76C2.11,37.43,1.37,39,.62,40.6a6.29,6.29,0,0,0,2.59,8.22c1.52.86,3.07,1.67,4.64,2.45a2.83,2.83,0,0,1,1.69,2.25c.27,1.76.55,3.51.92,5.24a6.32,6.32,0,0,0,3.61,4.59,7.85,7.85,0,0,0,4.23.39c1.56-.13,3.11-.41,4.67-.65a2.3,2.3,0,0,1,2.09.67c1,1,2.14,1.92,3.12,3a5.84,5.84,0,0,0,4,2.27h2.16a5.72,5.72,0,0,0,4.27-2.21c1-1.07,2.11-2,3.11-3A2.37,2.37,0,0,1,44,63.1c1.53.24,3.06.49,4.6.65a8.51,8.51,0,0,0,3.41-.1,6.38,6.38,0,0,0,4.56-5.47c.26-1.53.57-3,.79-4.58a2.93,2.93,0,0,1,1.81-2.39c1.53-.75,3-1.54,4.52-2.39A6.3,6.3,0,0,0,66.25,40.55Zm-6.33-3.13c.77,1.52,1.5,3.06,2.24,4.6s.42,2.51-1.11,3.32-2.89,1.55-4.36,2.29a6.28,6.28,0,0,0-3.58,5c-.25,1.69-.57,3.37-.89,5a2.11,2.11,0,0,1-2.67,1.88c-1.82-.26-3.64-.54-5.47-.79a5.69,5.69,0,0,0-4.89,1.55c-1.37,1.27-2.69,2.58-4,3.87s-2.22,1.17-3.45,0L28,60.57a6.1,6.1,0,0,0-5.53-1.81c-1.68.27-3.37.49-5.06.74a2.14,2.14,0,0,1-2.79-2c-.31-1.65-.61-3.31-.88-5a6.27,6.27,0,0,0-3.55-4.93c-1.48-.74-2.94-1.54-4.41-2.32S4,43.55,4.72,42.05,6.22,38.93,7,37.38a6.15,6.15,0,0,0,0-5.76c-.78-1.57-1.54-3.15-2.3-4.72a2.1,2.1,0,0,1,1-3.18Q8,22.51,10.27,21.33a6.27,6.27,0,0,0,3.5-4.88c.28-1.75.6-3.5.93-5.24A2.08,2.08,0,0,1,17,9.44c1.58.23,3.3.43,5,.73a6.57,6.57,0,0,0,6.3-2C29.44,7,30.64,5.9,31.8,4.78a2.09,2.09,0,0,1,3.31,0C36.32,6,37.55,7.12,38.74,8.31a6.33,6.33,0,0,0,5.83,1.9c1.64-.25,3.28-.48,4.93-.72a2.14,2.14,0,0,1,2.74,1.95c.31,1.68.61,3.36.88,5a6.24,6.24,0,0,0,3.47,4.83c1.52.78,3,1.59,4.53,2.39a2.12,2.12,0,0,1,1.06,3.23c-.75,1.56-1.49,3.12-2.27,4.66A6.18,6.18,0,0,0,59.92,37.42Z"/></g></g></svg>