<svg xmlns="http://www.w3.org/2000/svg" viewBox="0 0 75.94 69"><defs><style>.cls-1{fill:#612783;}</style></defs><g id="Camada_2" data-name="Camada 2"><g id="Camada_1-2" data-name="Camada 1"><path class="cls-1" d="M75.33,16.52c-2.47-4.59-5-9.13-7.39-13.79A4.57,4.57,0,0,0,63.38,0H18.53c-2.08,0-3.16,1.12-3.17,3.23s0,4.45,0,7c-.4-.36-.6-.52-.78-.7-2-2-4-4.1-6.08-6.07A5,5,0,0,0,.23,5.56,5.1,5.1,0,0,0,1.74,10.9q6.42,6.4,12.8,12.84a2,2,0,0,1,.83,1.47q0,12.2,0,24.4c0,.66-.21.86-.86.84-1.41,0-2.82,0-4.22,0A3.13,3.13,0,0,0,7.08,52a3.16,3.16,0,0,0,.47,3.44c2.55,3.86,5.1,7.73,7.59,11.63A3.76,3.76,0,0,0,18.62,69q22.23,0,44.44,0c2.55,0,3.56-1,3.56-3.55V42.8c0-6.72,0-13.45,0-20.17,0-1.11.32-1.39,1.37-1.33,1.49.09,3,0,4.5,0C75.55,21.31,76.79,19.25,75.33,16.52ZM4,9A2.59,2.59,0,0,1,3,7.12a2.09,2.09,0,0,1,1.1-1.9,1.81,1.81,0,0,1,2.15.19A8,8,0,0,1,6.82,6q6.63,6.66,13.27,13.29c.61.6.69.93,0,1.57-2.2,2.17-2.17,2.2-4.34,0Zm50,57q-17.39,0-34.75,0a1.88,1.88,0,0,1-1.87-1c-2.44-3.81-5-7.59-7.43-11.37.33-.49.77-.29,1.14-.29q20.91,0,41.83,0a1.79,1.79,0,0,1,1.75.93c2.48,3.85,5,7.66,7.66,11.7Zm9.55-3.39c-2.08-3.15-4.23-6.17-6.1-9.36a5.32,5.32,0,0,0-5.31-2.85c-10.76.12-21.53,0-32.29.08-1.3,0-1.53-.38-1.52-1.57.05-7,.06-14,0-21,0-1.22.49-1.4,1.4-1.15,1.49.4,3,.87,4.42,1.36A1.65,1.65,0,0,0,26,27.9a1.67,1.67,0,0,0,.23-1.9,37.57,37.57,0,0,1-1.79-5.69,5,5,0,0,0-1.66-2.6c-1.47-1.48-3.5-2.74-4.23-4.53s-.2-4.2-.22-6.33c0-1,0-2.09,0-3.14,0-.58.17-.84.77-.78a5.17,5.17,0,0,0,.68,0q21.26,0,42.51,0c1.17,0,1.5.23,1.5,1.46,0,18.94,0,37.88,0,56.82A2.05,2.05,0,0,1,63.47,62.6ZM72,18.52c-1.54-.06-3.08,0-4.62,0-.45,0-.79,0-.79-.63,0-3.6,0-7.2,0-10.79L66.86,7c.64,1.17,1.28,2.33,1.91,3.5,1.27,2.34,2.52,4.7,3.81,7C73,18.27,73,18.55,72,18.52Z"/><path class="cls-1" d="M42.9,38.43H54.47c1,0,2,.12,2.06,1.4.08,1-.63,1.52-2.09,1.53H31c-1,0-1.84-.21-2-1.36-.14-.94.63-1.56,1.9-1.56Z"/><path class="cls-1" d="M42.88,12.82H54.45c1.43,0,2.17.52,2.08,1.52-.11,1.26-1,1.42-2.07,1.42H31.06c-1.07,0-2-.25-2-1.47s.92-1.49,2-1.49C35,12.84,38.93,12.82,42.88,12.82Z"/><path class="cls-1" d="M42.68,24.06h-12c-1,0-1.63-.42-1.65-1.4s.62-1.45,1.59-1.47c.36,0,.72,0,1.09,0H54.21c1.06,0,2.21-.1,2.32,1.41.07,1-.62,1.46-2.26,1.46Z"/><path class="cls-1" d="M46.7,32.47c-2.58,0-5.17,0-7.75,0-1,0-1.9-.26-1.94-1.39s.86-1.55,1.94-1.55H54.59c1.06,0,2,.26,1.93,1.54s-.92,1.39-1.93,1.38C52,32.45,49.33,32.47,46.7,32.47Z"/></g></g></svg>