<svg xmlns="http://www.w3.org/2000/svg" viewBox="0 0 66.7 69.5"><defs><style>.cls-1{fill:#612783;}.cls-2{fill:none;stroke:#612783;stroke-linecap:round;stroke-miterlimit:10;stroke-width:6px;stroke-dasharray:14.02 14.02;}</style></defs><g id="Camada_2" data-name="Camada 2"><g id="Camada_1-2" data-name="Camada 1"><path class="cls-1" d="M30.92,53.49V49.12a18.71,18.71,0,0,1-7.8-2l1.37-5.37a16.53,16.53,0,0,0,7.63,2c2.62,0,4.42-1,4.42-2.85s-1.47-2.83-4.89-4c-4.91-1.66-8.26-4-8.26-8.4,0-4.07,2.83-7.24,7.76-8.19V16h4.52v4.06a16.67,16.67,0,0,1,6.66,1.5L41,26.76a14.66,14.66,0,0,0-6.6-1.59c-3,0-3.93,1.31-3.93,2.6,0,1.49,1.6,2.48,5.5,3.93,5.47,1.92,7.65,4.45,7.65,8.62s-2.87,7.54-8.15,8.46v4.71Z"/><rect class="cls-2" x="3" y="3" width="60.7" height="63.5" rx="30.35"/></g></g></svg>