<svg width="245" height="56" viewBox="0 0 245 56" fill="none" xmlns="http://www.w3.org/2000/svg">
<rect x="0.429688" y="0.429199" width="244" height="55.1412" rx="4" stroke="#767676" stroke-width="0.858824"/>
<path fill-rule="evenodd" clip-rule="evenodd" d="M101.887 30.7161V32.5221H106.284C106.152 33.5421 105.806 34.2981 105.287 34.8121C104.646 35.4481 103.648 36.1451 101.897 36.1451C99.1904 36.1451 97.0734 33.9851 97.0734 31.3011C97.0734 28.6171 99.1904 26.4571 101.897 26.4571C103.353 26.4571 104.422 27.0221 105.205 27.7591L106.498 26.4771C105.398 25.4381 103.943 24.6411 101.888 24.6411C98.1824 24.6411 95.0684 27.6281 95.0684 31.3111C95.0684 34.9841 98.1824 37.9811 101.888 37.9811C103.892 37.9811 105.398 37.3351 106.58 36.1141C107.79 34.9141 108.167 33.2181 108.167 31.8561C108.167 31.4321 108.137 31.0391 108.066 30.7161H101.887ZM113.165 29.3841C110.773 29.3841 108.819 31.1901 108.819 33.6721C108.819 36.1451 110.773 37.9621 113.165 37.9621C115.557 37.9621 117.511 36.1451 117.511 33.6721C117.511 31.1901 115.557 29.3841 113.165 29.3841ZM118.305 33.6721C118.305 31.1901 120.26 29.3841 122.652 29.3841C125.044 29.3841 126.998 31.1901 126.998 33.6721C126.998 36.1451 125.044 37.9621 122.652 37.9621C120.26 37.9621 118.305 36.1451 118.305 33.6721ZM120.209 33.6721C120.209 35.2061 121.339 36.2761 122.652 36.2761C123.954 36.2761 125.094 35.2061 125.094 33.6721C125.094 32.1291 123.965 31.0691 122.652 31.0691C121.339 31.0691 120.209 32.1281 120.209 33.6721ZM110.722 33.6721C110.722 35.2061 111.852 36.2761 113.165 36.2761C114.478 36.2761 115.608 35.2061 115.608 33.6721C115.608 32.1291 114.478 31.0691 113.165 31.0691C111.852 31.0691 110.722 32.1281 110.722 33.6721ZM144.302 29.3841C146.551 29.3841 147.65 31.1601 148.007 32.1181L148.21 32.6031L142.419 34.9751C142.856 35.8321 143.548 36.2751 144.515 36.2751C145.483 36.2751 146.154 35.8021 146.643 35.0851L148.119 36.0641C147.313 37.2617 145.959 37.9746 144.515 37.9621C142.052 37.9621 140.22 36.0741 140.22 33.6721C140.22 31.1191 142.072 29.3841 144.302 29.3841ZM142.103 33.5511C142.053 31.8961 143.396 31.0491 144.363 31.0491C145.116 31.0491 145.757 31.4221 145.971 31.9571L142.103 33.5511ZM139.304 37.7101H137.4V37.7091V25.0951H139.304V37.7101ZM134.276 30.3431H134.215C133.787 29.8391 132.973 29.3851 131.935 29.3851C129.766 29.3851 127.782 31.2721 127.782 33.6941C127.782 36.0951 129.766 37.9721 131.935 37.9721C132.963 37.9721 133.787 37.5181 134.215 36.9931H134.275V37.6091C134.275 39.2541 133.39 40.1321 131.965 40.1321C130.805 40.1321 130.082 39.3041 129.787 38.6081L128.127 39.2941C128.607 40.4341 129.868 41.8271 131.965 41.8271C134.195 41.8271 136.077 40.5251 136.077 37.3571V29.6471H134.276V30.3431ZM129.685 33.6931C129.685 35.1871 130.784 36.2771 132.097 36.2771H132.098C133.4 36.2771 134.418 35.1871 134.408 33.6941C134.408 32.1901 133.39 31.0801 132.097 31.0801C130.785 31.0801 129.685 32.1801 129.685 33.6931ZM156.923 25.0961H152.373V37.7101H154.277V32.9271H156.933C159.04 32.9271 161.107 31.4131 161.107 29.0111C161.107 26.6091 159.02 25.0961 156.923 25.0961ZM154.267 31.1711H156.964C158.389 31.1711 159.193 29.9911 159.193 29.0011C159.173 27.7897 158.176 26.8233 156.964 26.8411H154.267V31.1711ZM168.71 29.3641C167.336 29.3641 165.911 29.9701 165.321 31.2921L167.01 31.9881C167.366 31.2921 168.038 31.0601 168.741 31.0601C169.718 31.0601 170.725 31.6451 170.736 32.6841V32.8161C170.124 32.4966 169.442 32.3301 168.751 32.3311C166.929 32.3311 165.086 33.3211 165.086 35.1671C165.086 36.8521 166.573 37.9421 168.242 37.9421C169.514 37.9421 170.227 37.3771 170.664 36.7111H170.725V37.6901H172.558V32.8561C172.568 30.6161 170.878 29.3641 168.71 29.3641ZM166.99 35.2071C166.99 35.9641 167.855 36.2771 168.476 36.2771C169.575 36.2771 170.593 35.4491 170.736 34.2891C170.237 34.0471 169.84 33.8651 169.005 33.8651C168.069 33.8651 166.99 34.2381 166.99 35.2071ZM179.245 29.6371L177.067 35.1071H177.006L174.746 29.6371H172.7L176.09 37.2861L174.156 41.5341H176.14L181.362 29.6371H179.245ZM164.048 37.7101H162.145V37.7091V25.0951H164.048V37.7101Z" fill="#F7F7F7"/>
<path fill-rule="evenodd" clip-rule="evenodd" d="M64.7602 15.0219L76.3682 26.8019L79.7672 23.3599L65.6162 15.2069C65.2572 15.0289 64.9902 14.9609 64.7602 15.0219ZM64.0732 15.7379L75.6812 27.5049H75.6802L64.0842 39.2849C64.0242 39.1739 64.0002 38.9199 63.9992 38.6799C63.9972 33.4983 63.9982 29.4954 63.9991 25.2332L63.9992 24.9629L64.0012 16.2429C64.0012 16.0319 64.0132 15.8479 64.0732 15.7379ZM64.7122 39.9879L64.7131 39.987C65.0755 40.0208 65.2464 39.9848 65.5202 39.8629L79.7672 31.6599L76.3802 28.2199L64.7131 39.987L64.7122 39.9869V39.9879ZM77.0552 27.4919L80.6592 23.8419L85.3842 26.6049C85.7612 26.8419 85.9632 27.0239 85.9992 27.4929C85.9752 27.9239 85.7722 28.1549 85.3852 28.4059L80.6352 31.1559L77.0552 27.4919Z" fill="white"/>
<path fill-rule="evenodd" clip-rule="evenodd" d="M126.642 14.0238H127.324V14.0248L127.945 12.9448H127.09L126.642 14.0238ZM105.338 20.6848C104.89 20.6848 104.463 20.5438 104.035 20.2508C103.613 19.9686 103.314 19.5358 103.2 19.0408L103.913 18.7578C103.994 19.0908 104.167 19.3728 104.433 19.5948C104.697 19.8268 104.992 19.9388 105.328 19.9388C105.664 19.9388 105.958 19.8478 106.203 19.6758C106.441 19.5121 106.579 19.2385 106.57 18.9498C106.57 18.6158 106.447 18.3538 106.203 18.1728C105.959 17.9908 105.583 17.8188 105.053 17.6578C104.513 17.4858 104.106 17.2738 103.821 17.0018C103.544 16.7322 103.392 16.3585 103.404 15.9718C103.404 15.5388 103.577 15.1648 103.924 14.8418C104.269 14.5198 104.727 14.3578 105.277 14.3578C105.796 14.3578 106.213 14.4888 106.539 14.7408C106.865 14.9938 107.079 15.2758 107.17 15.5788L106.458 15.8718C106.394 15.6571 106.262 15.4691 106.081 15.3368C105.877 15.1748 105.623 15.0948 105.297 15.0948C104.992 15.0948 104.737 15.1748 104.524 15.3468C104.31 15.5178 104.208 15.7198 104.208 15.9728C104.208 16.1948 104.31 16.3858 104.503 16.5478C104.697 16.6988 104.992 16.8408 105.368 16.9618C105.674 17.0618 105.918 17.1528 106.122 17.2438C106.325 17.3338 106.529 17.4558 106.732 17.6068C106.936 17.7588 107.099 17.9398 107.201 18.1618C107.302 18.3838 107.364 18.6468 107.364 18.9388C107.364 19.2318 107.302 19.4938 107.18 19.7268C107.068 19.9477 106.899 20.1352 106.692 20.2708C106.49 20.4052 106.271 20.5106 106.04 20.5838C105.827 20.6538 105.582 20.6848 105.338 20.6848ZM95.373 20.5538V14.4988H97.246C98.182 14.4988 98.936 14.7818 99.496 15.3368C100.056 15.9018 100.34 16.6278 100.34 17.5268C100.34 18.4248 100.055 19.1508 99.495 19.7168C98.925 20.2708 98.172 20.5538 97.235 20.5538H95.373ZM96.157 19.8068H97.236C97.938 19.8068 98.498 19.6048 98.916 19.2018C99.332 18.7978 99.536 18.2428 99.536 17.5158C99.536 16.7998 99.332 16.2448 98.916 15.8408C98.498 15.4378 97.948 15.2358 97.236 15.2358H96.156V19.8068H96.157ZM101.439 14.4988V20.5538H102.223V14.4988H101.439ZM108.504 20.5538H109.287V18.1118H110.58C111.078 18.1201 111.559 17.9355 111.924 17.5968C112.3 17.2538 112.494 16.8198 112.494 16.3058C112.494 15.7808 112.3 15.3568 111.924 15.0138C111.547 14.6708 111.1 14.4988 110.58 14.4988H108.504V20.5538ZM109.288 17.3548H110.6C110.926 17.3548 111.19 17.2448 111.394 17.0218C111.598 16.7998 111.689 16.5578 111.689 16.2958C111.689 16.0328 111.588 15.7908 111.394 15.5688C111.191 15.3469 110.901 15.2252 110.6 15.2358H109.287V17.3558L109.288 17.3548ZM116.239 20.6848C117.135 20.6848 117.878 20.3818 118.478 19.7668L118.479 19.7658C119.079 19.1608 119.385 18.4148 119.385 17.5258C119.385 16.6488 119.079 15.9018 118.479 15.2858C117.868 14.6708 117.125 14.3678 116.24 14.3678C115.344 14.3678 114.6 14.6708 114 15.2868C113.399 15.8918 113.104 16.6488 113.104 17.5268C113.104 18.4038 113.4 19.1508 114 19.7668C114.6 20.3818 115.344 20.6848 116.239 20.6848ZM114.58 19.2618C115.028 19.7158 115.588 19.9378 116.24 19.9378C116.89 19.9378 117.45 19.7158 117.898 19.2618C118.346 18.8078 118.58 18.2328 118.58 17.5268C118.58 16.8198 118.356 16.2448 117.898 15.7908C117.451 15.3368 116.891 15.1148 116.239 15.1148C115.588 15.1148 115.028 15.3368 114.58 15.7908C114.132 16.2448 113.898 16.8208 113.898 17.5268C113.898 18.2328 114.132 18.8078 114.58 19.2618ZM120.483 14.4988V20.5538H121.277V16.7898L121.247 15.6188H121.277L124.382 20.5538H125.196V14.4988H124.412V18.0418L124.442 19.2118H124.412L121.44 14.4988H120.483ZM126.591 20.5538V14.4988H127.375V20.5538H126.591ZM130.286 20.5538L128.138 14.4988H129.003L130.673 19.4138H130.703L132.453 14.4988H133.319L131.099 20.5538H130.286ZM134.998 15.2458H137.777V14.4988H134.215V20.5538H137.778V19.8068H134.998V17.8898H137.502V17.1628H134.998V15.2458ZM139 20.5538V14.4988H139.783V19.8068H142.43V20.5538H139ZM145.463 14.4988V20.5538H146.257V16.7898L146.227 15.6188H146.257L149.361 20.5538H150.176V14.4988H149.392V18.0418L149.422 19.2118H149.392L146.42 14.4988H145.463ZM156.568 19.7668C155.967 20.3818 155.224 20.6848 154.329 20.6848C153.433 20.6848 152.69 20.3818 152.089 19.7668C151.489 19.1508 151.194 18.4038 151.194 17.5268C151.194 16.6488 151.489 15.8918 152.089 15.2868C152.69 14.6708 153.433 14.3678 154.329 14.3678C155.214 14.3678 155.957 14.6708 156.568 15.2858C157.168 15.9018 157.474 16.6488 157.474 17.5258C157.464 18.4148 157.168 19.1608 156.568 19.7658V19.7668ZM154.329 19.9378C153.677 19.9378 153.117 19.7158 152.67 19.2618C152.222 18.8078 151.988 18.2328 151.988 17.5268C151.988 16.8208 152.222 16.2448 152.67 15.7908C153.117 15.3368 153.677 15.1148 154.329 15.1148C154.98 15.1148 155.54 15.3368 155.988 15.7908C156.446 16.2448 156.67 16.8198 156.67 17.5268C156.67 18.2328 156.436 18.8078 155.988 19.2618C155.54 19.7158 154.98 19.9378 154.329 19.9378Z" fill="#F7F7F7"/>
</svg>
