<?xml version="1.0" encoding="utf-8"?>
<!-- Generator: Adobe Illustrator 16.0.0, SVG Export Plug-In . SVG Version: 6.00 Build 0)  -->
<!DOCTYPE svg PUBLIC "-//W3C//DTD SVG 1.1//EN" "http://www.w3.org/Graphics/SVG/1.1/DTD/svg11.dtd">
<svg version="1.1" id="Layer_1" xmlns="http://www.w3.org/2000/svg" xmlns:xlink="http://www.w3.org/1999/xlink" x="0px" y="0px"
	 width="1920px" height="1080px" viewBox="0 0 1920 1080" enable-background="new 0 0 1920 1080" xml:space="preserve">
<g>
	<path fill="#999999" d="M105.948,1005.127H85.034c0.082-5.644,0.207-10.75,0.374-15.313c0.08-1.991,0.143-3.961,0.185-5.914
		c0.042-1.95,0.082-3.755,0.126-5.415c0.04-1.66,0.08-3.113,0.124-4.357c0.04-1.244,0.063-2.113,0.063-2.613V819.381h20.541v76.068
		c5.229-7.224,11.806-12.555,19.731-16c7.926-3.442,16.538-5.167,25.833-5.167c9.875,0,18.343,1.786,25.398,5.354
		c7.051,3.57,12.821,8.341,17.305,14.316c4.481,5.976,7.78,12.928,9.896,20.854c2.116,7.925,3.175,16.248,3.175,24.959
		c0,9.299-1.225,18.075-3.673,26.333c-2.45,8.257-6.1,15.5-10.955,21.724c-4.856,6.223-10.936,11.142-18.24,14.752
		c-7.303,3.609-15.769,5.414-25.396,5.414c-9.047,0-17.18-1.679-24.399-5.041c-7.222-3.361-13.445-8.318-18.675-14.877
		L105.948,1005.127z M186.994,936.656c0-6.309-0.914-12.242-2.74-17.805c-1.826-5.561-4.462-10.395-7.904-14.504
		c-3.446-4.106-7.617-7.365-12.512-9.772c-4.897-2.404-10.417-3.61-16.557-3.61c-6.724,0-12.636,1.352-17.742,4.045
		c-5.104,2.698-9.379,6.35-12.823,10.959c-3.444,4.605-6.018,9.937-7.718,15.996c-1.702,6.06-2.553,12.409-2.553,19.049
		c0,7.219,0.685,13.736,2.055,19.544c1.368,5.812,3.65,10.769,6.848,14.878c3.193,4.105,7.364,7.281,12.51,9.524
		c5.146,2.24,11.495,3.362,19.049,3.362c7.47,0,13.775-1.474,18.923-4.423c5.146-2.946,9.274-6.827,12.388-11.638
		c3.112-4.813,5.352-10.314,6.722-16.496C186.309,949.584,186.994,943.211,186.994,936.656z"/>
	<path fill="#999999" d="M442.678,874.282c5.23,0,10.001,0.481,14.317,1.431c4.315,0.958,8.3,2.305,11.953,4.049
		c3.65,1.744,7.012,3.9,10.083,6.472c3.07,2.575,5.934,5.479,8.59,8.716l0.748-17.553h20.292l-0.498,31.495v96.235h-20.542
		l0.25-17.927c-1.992,2.655-4.503,5.25-7.533,7.78c-3.03,2.533-6.455,4.751-10.27,6.658c-3.82,1.912-8.03,3.446-12.636,4.609
		c-4.606,1.16-9.442,1.74-14.504,1.74c-7.139,0-13.613-0.931-19.42-2.801c-5.812-1.865-10.999-4.438-15.563-7.715
		c-4.565-3.278-8.526-7.117-11.888-11.517s-6.122-9.132-8.28-14.195c-2.158-5.06-3.775-10.31-4.854-15.747
		c-1.08-5.434-1.62-10.811-1.62-16.122c0-8.216,1.265-16.267,3.799-24.15c2.53-7.884,6.348-14.897,11.453-21.04
		c5.104-6.144,11.493-11.082,19.171-14.817C423.402,876.152,432.387,874.282,442.678,874.282z M445.044,991.558
		c5.81,0,11.269-1.183,16.372-3.549s9.585-5.85,13.445-10.459c3.86-4.605,6.929-10.333,9.213-17.179
		c2.281-6.846,3.465-14.752,3.547-23.715c0-6.725-1.018-12.863-3.049-18.428c-2.036-5.559-4.919-10.371-8.652-14.438
		c-3.736-4.067-8.28-7.224-13.632-9.463c-5.354-2.24-11.351-3.362-17.99-3.362c-5.063,0-9.629,0.688-13.694,2.053
		c-4.068,1.37-7.678,3.26-10.832,5.667c-3.155,2.407-5.893,5.228-8.215,8.464c-2.326,3.239-4.233,6.704-5.728,10.397
		c-1.494,3.694-2.595,7.532-3.299,11.517c-0.706,3.983-1.059,7.926-1.059,11.825c0,3.819,0.269,7.738,0.809,11.764
		c0.54,4.026,1.433,7.906,2.677,11.643c1.246,3.731,2.946,7.261,5.105,10.581c2.156,3.319,4.833,6.204,8.028,8.65
		c3.194,2.449,7.014,4.403,11.453,5.854C433.984,990.832,439.15,991.558,445.044,991.558z"/>
	<path fill="#999999" d="M719.53,1005.127h-20.542v-96.983c0-3.815-0.042-7.57-0.124-11.264c-0.084-3.694-0.168-6.991-0.248-9.898
		c-0.168-3.319-0.292-6.514-0.374-9.585h20.791l0.498,17.678c4.98-7.055,10.975-12.282,17.99-15.686
		c7.011-3.404,15.29-5.106,24.835-5.106c9.295,0,16.973,1.538,23.032,4.606c6.058,3.071,10.85,7.367,14.38,12.886
		c3.526,5.521,5.976,12.096,7.344,19.731c1.37,7.639,2.055,16.019,2.055,25.15v68.471h-20.541v-66.105
		c0-7.224-0.313-13.798-0.935-19.735c-0.622-5.93-1.95-10.993-3.983-15.187c-2.034-4.19-5.043-7.426-9.026-9.712
		c-3.983-2.281-9.337-3.423-16.059-3.423c-6.225,0-11.745,1.206-16.559,3.61c-4.813,2.407-8.881,5.312-12.198,8.715
		c-3.322,3.403-5.873,6.995-7.657,10.769c-1.786,3.777-2.677,7.078-2.677,9.898V1005.127z"/>
	<path fill="#999999" d="M1025.261,819.381V932.05l58.016-54.653h28.011l-65.981,60.255c11.703,11.203,23.486,22.452,35.355,33.735
		c11.869,11.291,23.654,22.537,35.357,33.74h-27.265l-63.493-62.373v62.373h-20.54V819.381H1025.261z"/>
	<g>
		<path fill="#8517FA" d="M1357.188,940.833l207.926-246.901c-8.371,6.495-27.925,9.723-58.641,9.723
			c-88.375,0-163.018-29.757-223.927-89.291c-60.929-59.515-91.383-133-91.383-220.438c0-90.207,30.692-166.248,92.081-228.113
			c61.389-61.847,139.977-92.777,235.785-92.777c96.726,0,175.313,30.473,235.784,91.381
			c60.452,60.93,90.687,136.032,90.687,225.323c0,81.878-28.361,157.676-85.082,227.437l-318.123,387.836L1357.188,940.833z
			 M1305.566,391.133c0,60.473,20.448,112.096,61.389,154.866c40.917,42.793,91.602,64.179,152.074,64.179
			c60.45,0,110.916-21.386,151.377-64.179c40.46-42.771,60.69-94.394,60.69-154.866c0-61.385-20.013-113.467-59.994-156.26
			c-40.001-42.771-90.686-64.178-152.073-64.178c-61.389,0-112.312,21.407-152.772,64.178
			C1325.797,277.666,1305.566,329.748,1305.566,391.133z"/>
	</g>
	<g>
		<path d="M75.5,725.448V73.012h303.062c53.693,0,97.491,14.095,131.395,42.283c33.888,28.197,50.845,66.8,50.845,115.793
			c0,26.174-7.392,50.684-22.149,73.494c-14.772,22.827-31.889,37.937-51.349,45.313c38.92,6.718,71.642,26.522,98.166,59.399
			c26.511,32.9,39.773,71.836,39.773,116.801c0,60.406-22.498,108.734-67.458,144.981c-44.98,36.247-104.713,54.371-179.222,54.371
			H75.5z M156.049,324.721h226.542c28.851,0,51.678-8.209,68.465-24.668c16.771-16.434,25.171-37.754,25.171-63.936
			c0-26.833-9.062-48.827-27.186-65.943c-18.124-17.117-43.64-25.675-76.521-25.675H156.049V324.721z M156.049,653.961h217.48
			c51.004,0,91.622-11.572,121.829-34.732c30.203-23.16,45.31-53.872,45.31-92.126c0-39.603-12.933-71.313-38.766-95.147
			c-25.849-23.818-62.596-35.747-110.249-35.747H156.049V653.961z"/>
		<path d="M661.478,480.782c0-70.479,23.818-130.712,71.487-180.729c47.653-49.992,105.72-75.009,174.186-75.009
			c64.44,0,119.814,24.842,166.131,74.51c46.313,49.684,69.473,108.741,69.473,177.208l-2.014,32.217H742.027
			c6.04,46.987,25.833,84.916,59.404,113.771c33.558,28.871,73.153,43.299,118.807,43.299c59.058,0,109.404-18.791,151.029-56.387
			l36.248,55.379c-55.724,46.986-118.149,70.48-187.277,70.48c-71.833,0-132.902-23.819-183.244-71.488
			C686.648,616.381,661.478,555.291,661.478,480.782z M741.02,448.564h324.207c-4.703-44.965-22.323-82.061-52.859-111.257
			c-30.553-29.196-66.625-43.798-108.238-43.798c-40.951,0-76.865,14.776-107.731,44.306
			C765.516,367.36,747.06,404.267,741.02,448.564z"/>
	</g>
</g>
</svg>
