<svg xmlns="http://www.w3.org/2000/svg" viewBox="0 0 914.5 221.7"><defs><style>.cls-1{fill:#28d15c;stroke:#00af47;stroke-miterlimit:10;stroke-width:5px;}.cls-2{fill:#f7f7f7;}.cls-3{font-size:109px;fill:#1a1a1a;font-family:LucidaBright-Demi, Lucida Bright;font-weight:300;}</style></defs><title>grbusiness</title><g id="Camada_2" data-name="Camada 2"><g id="Camada_1-2" data-name="Camada 1"><path class="cls-1" d="M188.68,166.94,100,218.26a7.12,7.12,0,0,1-7.13,0L6,168A7,7,0,0,1,2.5,161.9L3.13,60.2a7,7,0,0,1,3.54-6L93.79,3.43a7.12,7.12,0,0,1,7.13,0L188.3,53.67a7,7,0,0,1,3.48,6.08l.45,101.15A7,7,0,0,1,188.68,166.94Z"/><path class="cls-2" d="M183.4,111.1c0,14.8-.05,29.6,0,44.4,0,2.95-1,4.92-3.63,6.33-3.73,2-7.33,4.27-11,6.4-2.75,1.59-3.91.93-3.91-2.23,0-20.85-.07-41.7,0-62.55a9.91,9.91,0,0,0-5.48-9.54C140,82.79,120.71,71.5,101.29,60.38a7.37,7.37,0,0,1-4.2-7.26c.12-12,0-24-.1-36,0-3.92,1.85-5,5.28-3.05Q140.39,36,178.52,57.86a9,9,0,0,1,4.91,8.6C183.35,81.34,183.4,96.22,183.4,111.1Z"/><path class="cls-2" d="M140.82,148.89c0,10.38-.09,20.77.05,31.15,0,3.15-1,5.24-3.8,6.72-3.76,2-7.36,4.24-11,6.36-3,1.74-4.18,1.1-4.19-2.36,0-12.17-.13-24.35,0-36.53.07-4.56-1.76-7.43-5.66-9.67-19.35-11.08-38.59-22.36-57.92-33.47a6.74,6.74,0,0,1-3.76-6.53c0-12.18-.06-24.37-.1-36.55,0-3.91,1.9-5.09,5.23-3.18q38.35,22,76.69,44.08a8.3,8.3,0,0,1,4.47,7.84C140.77,127.46,140.81,138.17,140.82,148.89Z"/><path class="cls-2" d="M97.62,186.92c0,6.38,0,12.76,0,19.14,0,3.24-1.06,3.81-3.9,2.17q-39.43-22.84-78.89-45.67a6,6,0,0,1-3.33-5.76c0-12.43-.15-24.86-.2-37.29,0-3.48,2.1-4.6,5.2-2.82q22.23,12.72,44.44,25.48c10.48,6,20.93,12.1,31.48,18,3.69,2.06,5.45,4.83,5.33,9.09-.17,5.89,0,11.78,0,17.66Z"/><text class="cls-3" transform="translate(229.55 148.41)">GR Business</text></g></g></svg>